<?xml version="1.0" encoding="UTF-8"?>
<svg width="1200pt" height="1200pt" version="1.1" viewBox="0 0 1200 1200" xmlns="http://www.w3.org/2000/svg">
 <path d="m600 55.312c174.32 0 339.14 79.453 447.66 215.86 108.56 136.4 148.97 314.86 109.83 484.74-39.188 169.87-153.71 312.61-311.02 387.71-5.5781 2.5781-12.234 0.51562-15.328-4.8281l-123.98-214.78c-1.7344-3-2.0625-6.5625-0.9375-9.8438s3.6094-5.9062 6.8438-7.2188c87.281-35.25 153.1-109.22 177.98-199.97 24.891-90.797 6-188.02-51.094-262.87-57.047-74.859-145.82-118.78-239.95-118.78s-182.9 43.922-239.95 118.78c-57.094 74.859-75.984 172.08-51.094 262.87 24.891 90.75 90.703 164.72 177.98 199.97 3.2344 1.3125 5.7188 3.9375 6.8438 7.2188s0.79688 6.8438-0.9375 9.8438l-123.98 214.78c-3.0938 5.3438-9.75 7.4062-15.328 4.8281-157.31-75.094-271.82-217.82-311.02-387.71-39.141-169.87 1.2656-348.32 109.83-484.74 108.52-136.4 273.32-215.86 447.66-215.86zm43.219 468.61-111.14 192c-3.2344 6.75-0.75 14.859 5.7656 18.609 6.5156 3.7031 14.766 1.7812 18.938-4.4531l111.14-192c3.6562-6.7969 1.2656-15.281-5.4375-19.125-6.6562-3.8906-15.234-1.7344-19.266 4.8281zm-195 8.3906-84.703 84.844h-0.046875c-2.6719 2.6719-4.2188 6.3281-4.2188 10.125 0 3.8438 1.5469 7.5 4.2188 10.172l84.703 84.703h0.046875c2.6719 2.7188 6.3281 4.2188 10.125 4.2188s7.4531-1.5 10.125-4.2188c2.7188-2.6719 4.2188-6.2812 4.2188-10.078s-1.5-7.4062-4.2188-10.078l-74.625-74.766 74.156-74.625c2.7188-2.6719 4.2188-6.3281 4.2188-10.172 0-3.7969-1.5-7.4531-4.2188-10.125-5.625-5.4844-14.625-5.4844-20.297 0zm283.78 20.297 74.625 74.625-74.625 74.766c-2.7188 2.6719-4.2188 6.2812-4.2188 10.078s1.5 7.4062 4.2188 10.078c2.6719 2.7188 6.3281 4.2188 10.125 4.2188 3.8438 0 7.4531-1.5 10.172-4.2188l84.703-84.703c2.7188-2.6719 4.2188-6.3281 4.2188-10.172 0-3.7969-1.5-7.4531-4.2188-10.125l-84.703-84.844c-5.6719-5.4844-14.672-5.4844-20.297 0-2.7188 2.6719-4.2188 6.3281-4.2188 10.125 0 3.8438 1.5 7.5 4.2188 10.172z" fill-rule="evenodd"/>
</svg>
