<?xml version="1.0" encoding="UTF-8"?>
<svg width="1200pt" height="1200pt" version="1.1" viewBox="0 0 1200 1200" xmlns="http://www.w3.org/2000/svg">
 <path d="m1004.4 220.55c-108-108-251.63-167.53-404.39-167.53-152.76 0.046875-296.39 59.531-404.39 167.53s-167.53 251.63-167.53 404.39c0 111.94 32.297 220.31 93.469 313.45 59.625 90.844 143.29 162.47 241.78 207.37 6.4688 3 14.297 0.46875 17.859-5.7656l133.13-230.39c2.0625-3.6094 2.3906-7.9219 0.9375-11.766s-4.5469-6.9375-8.3906-8.2969c-112.08-39.469-187.31-145.78-187.31-264.61 0-154.64 125.76-280.55 280.45-280.55 154.69 0 280.45 125.76 280.45 280.45 0 118.78-75.234 225.24-187.31 264.61-3.9375 1.3125-6.9375 4.4531-8.3906 8.2969s-1.0781 8.2969 0.9375 11.766l132.94 230.48c2.5312 4.4531 7.2188 6.9375 12.141 6.9375 1.9219 0 3.9375-0.375 5.7656-1.2188 98.625-44.859 182.29-116.53 241.78-207.37 61.219-93.141 93.469-201.61 93.469-313.45 0-152.68-59.391-296.34-167.39-404.34zm-168 894.37-118.45-205.08c114.61-47.391 190.45-159.84 190.45-285 0-170.06-138.37-308.39-308.39-308.39-170.06 0-308.39 138.37-308.39 308.39 0 125.06 75.844 237.47 190.31 285l-118.31 205.08c-187.22-90.469-307.55-281.39-307.55-490.08 0-299.9 244.08-543.84 543.94-543.84 299.86 0 543.94 243.94 543.94 543.94 0 208.6-120.32 399.52-307.55 489.98zm-108.09-417.24 72.844-72.844-72.844-72.844c-5.3906-5.3906-5.3906-14.297 0-19.688 5.3906-5.3906 14.297-5.3906 19.688 0l82.688 82.688c2.625 2.625 4.0781 6.1406 4.0781 9.8438 0 3.7031-1.4531 7.2188-4.0781 9.8438l-82.688 82.688c-2.7656 2.7656-6.2344 4.0781-9.8438 4.0781s-7.0781-1.3125-9.8438-4.0781c-5.4375-5.4375-5.4375-14.156 0-19.688zm-256.6-145.69-72.844 72.844 72.844 72.844c5.3906 5.3906 5.3906 14.297 0 19.688-2.7656 2.7656-6.2344 4.0781-9.8438 4.0781-3.6094 0-7.0781-1.3125-9.8438-4.0781l-82.688-82.688c-2.625-2.625-4.0781-6.1406-4.0781-9.8438s1.4531-7.2188 4.0781-9.8438l82.688-82.688c5.3906-5.3906 14.297-5.3906 19.688 0 5.4375 5.3906 5.4375 14.297 0 19.688zm194.53-13.922-108.38 187.69c-2.625 4.4531-7.3125 6.9375-12.141 6.9375-2.3906 0-4.7812-0.60937-6.9375-1.9219-6.7031-3.8438-9-12.375-5.1562-19.078l108.38-187.69c3.8438-6.7031 12.375-9 19.078-5.1562 6.7031 3.9844 9 12.516 5.1562 19.219z" fill="#ed8f3f"/>
</svg>
