<?xml version="1.0" encoding="UTF-8"?>
<svg width="1200pt" height="1200pt" version="1.1" viewBox="0 0 1200 1200" xmlns="http://www.w3.org/2000/svg">
 <path d="m252.32 510.15 128.16 66.777c0.38281 0.19531 0.78906 0.30859 1.1914 0.44922 0.26172 0.09375 0.51562 0.22656 0.77734 0.28906 0.77734 0.19531 1.5664 0.32031 2.3516 0.32031 0.78906 0 1.5742-0.12109 2.3516-0.32031 0.27344-0.066406 0.51562-0.19531 0.77734-0.28906 0.39453-0.14062 0.80469-0.24219 1.1914-0.44922l128.18-66.777c3.1016-1.6133 5.043-4.8203 5.043-8.3164l0.003906-181.28c0-0.86328-0.13281-1.6953-0.35547-2.5039-0.074219-0.25391-0.19531-0.48828-0.28906-0.73047-0.19531-0.53516-0.40234-1.0508-0.69531-1.5469-0.16797-0.27344-0.375-0.50781-0.5625-0.76953-0.30078-0.40234-0.60937-0.79688-0.97656-1.1641-0.25391-0.24219-0.53516-0.44922-0.81641-0.67578-0.23438-0.17969-0.42188-0.39453-0.67578-0.5625-0.17969-0.11328-0.36719-0.16016-0.54297-0.25391-0.14844-0.085938-0.26172-0.20703-0.42188-0.28125l-128.18-61.133c-2.5508-1.2188-5.5234-1.2188-8.0703 0l-128.16 61.164c-0.16016 0.074219-0.27344 0.19531-0.42188 0.28125-0.17969 0.10156-0.375 0.14844-0.54297 0.25391-0.25391 0.16016-0.44141 0.38281-0.68359 0.5625-0.28125 0.21484-0.5625 0.42188-0.80469 0.67578-0.36719 0.35547-0.67578 0.75-0.97656 1.1641-0.1875 0.25391-0.39453 0.49609-0.55469 0.76953-0.28906 0.48828-0.50781 1.0117-0.70312 1.5547-0.09375 0.24219-0.21484 0.46875-0.28906 0.72266-0.22656 0.80469-0.35547 1.6406-0.35547 2.5039v181.29c-0.003906 3.4648 1.9375 6.6719 5.043 8.2812zm13.703-174.75 109.41 52.117v165.64l-109.41-57.008zm128.17 217.77v-165.65l109.43-52.117v160.74zm-9.375-283.35 106.38 50.738-106.38 50.664-106.38-50.664z" fill="#ed8f3f"/>
 <path d="m993.54 690.02c-0.074219-0.25391-0.19531-0.48828-0.28906-0.73047-0.19531-0.53516-0.40234-1.0508-0.69531-1.5469-0.16016-0.27344-0.36719-0.50781-0.5625-0.76953-0.30078-0.40234-0.60938-0.79688-0.97656-1.1641-0.25391-0.24219-0.53516-0.44922-0.81641-0.67578-0.23438-0.17969-0.42188-0.39453-0.67578-0.5625-0.17969-0.11328-0.36719-0.16016-0.54297-0.25391-0.14844-0.085937-0.26172-0.20703-0.42188-0.28125l-122.83-58.586 0.003906-180.99c0-0.86328-0.13281-1.6953-0.35547-2.5039-0.074218-0.25391-0.19531-0.48828-0.28906-0.73047-0.19531-0.53516-0.40234-1.0508-0.69531-1.5469-0.16797-0.27344-0.375-0.50781-0.5625-0.76953-0.30078-0.40234-0.60938-0.79688-0.97656-1.1641-0.25391-0.24219-0.53516-0.44922-0.81641-0.67578-0.23437-0.17969-0.42187-0.39453-0.67578-0.5625-0.16797-0.11328-0.36719-0.16016-0.54297-0.25391-0.14844-0.085937-0.27344-0.20703-0.42187-0.28125l-128.18-61.133c-2.5508-1.2188-5.5234-1.2109-8.0703 0l-128.18 61.133c-0.16016 0.074219-0.27344 0.19531-0.42188 0.28125-0.17969 0.09375-0.375 0.14062-0.54297 0.25391-0.25391 0.16016-0.44141 0.38281-0.67578 0.5625-0.28125 0.21484-0.5625 0.42188-0.81641 0.67578-0.36719 0.34766-0.66406 0.74219-0.96484 1.1445-0.19531 0.25391-0.40234 0.49609-0.57031 0.77734-0.28906 0.48828-0.49609 1.0039-0.69531 1.5391-0.09375 0.24219-0.21484 0.47656-0.28906 0.73047-0.23438 0.83594-0.36719 1.6602-0.36719 2.5234v181l-118.8 56.66-124.13-59.203c-2.5508-1.2188-5.5234-1.2188-8.0703 0l-128.16 61.133c-0.16016 0.074218-0.27344 0.19531-0.42188 0.28125-0.17969 0.09375-0.375 0.14844-0.54297 0.25391-0.25391 0.16016-0.44141 0.38281-0.68359 0.5625-0.28125 0.21484-0.5625 0.42188-0.80469 0.67578-0.36719 0.35547-0.67578 0.75-0.97656 1.1641-0.1875 0.25391-0.39453 0.49609-0.55469 0.76953-0.28906 0.48828-0.50781 1.0117-0.70312 1.5547-0.09375 0.24219-0.21484 0.46875-0.28906 0.72266-0.22656 0.80469-0.35547 1.6406-0.35547 2.5039v181.29c0 3.4961 1.9492 6.6953 5.043 8.3164l128.16 66.777c0.38281 0.19531 0.78906 0.30859 1.1914 0.44922 0.26172 0.09375 0.51562 0.22656 0.77734 0.28906 0.77734 0.19531 1.5664 0.32031 2.3516 0.32031 0.78906 0 1.5742-0.12109 2.3516-0.32031 0.27344-0.066406 0.51562-0.19531 0.77734-0.28906 0.39453-0.14062 0.80469-0.24219 1.1914-0.44922l123.84-64.52 123.84 64.52c0.38281 0.19531 0.78906 0.30859 1.1914 0.44922 0.26172 0.09375 0.51563 0.22656 0.77734 0.28906 0.77734 0.19531 1.5664 0.32031 2.3516 0.32031 0.78906 0 1.5742-0.12109 2.3516-0.32031 0.27344-0.066406 0.51562-0.19531 0.77734-0.28906 0.39453-0.14062 0.80469-0.24219 1.1914-0.44922l123.85-64.52 123.84 64.52c0.38281 0.19531 0.79688 0.30859 1.1992 0.44922 0.25391 0.09375 0.50781 0.21484 0.76953 0.28906 0.77734 0.19531 1.5664 0.32031 2.3516 0.32031 0.78906 0 1.5742-0.12109 2.3516-0.32031 0.27344-0.066406 0.51562-0.19531 0.77734-0.28906 0.39453-0.14062 0.80469-0.24219 1.1914-0.44922l128.16-66.777c3.1016-1.6133 5.043-4.8203 5.043-8.3164l0.007812-181.32c0.046876-0.86328-0.09375-1.6875-0.30859-2.4922zm-137.19 53.156-106.38-50.664 106.38-50.738 106.38 50.738zm-137.55-66.113-109.43-57v-160.75l109.43 52.105v165.65zm128.18-217.75v160.75l-109.43 57v-165.65l66.207-31.527zm-246.98 182.46 106.39 50.738-106.39 50.664-106.38-50.664zm128.18-248.05 106.38 50.738-106.38 50.664-106.39-50.664zm-384.53 248.05 106.38 50.738-106.38 50.664-106.38-50.664zm-118.8 65.59 109.41 52.117v165.64l-109.41-57.008zm128.17 52.113 109.43-52.117v160.74l-109.43 57.023zm128.18-52.113 109.43 52.113v165.65l-109.43-57.008zm128.18 52.113 85.875-40.895 23.559-11.223v160.74l-109.43 57.023zm128.18-52.113 109.43 52.117v165.64l-109.43-57.008zm128.18 217.76v-165.65l109.41-52.117v160.74z" fill="#ed8f3f"/>
 <path d="m490.87 555.01c-2.6445-4.4531-8.4102-5.9062-12.852-3.2617-4.4531 2.6445-5.9062 8.3984-3.2617 12.852l25.191 42.328-26.176-5.5703c-5.0234-1.0781-10.039 2.1562-11.117 7.2188s2.1484 10.039 7.2188 11.117l50.551 10.754c0.65625 0.14063 1.3125 0.20703 1.9609 0.20703 4.125 0 7.875-2.7383 9.0195-6.8633l13.539-48.629c1.3867-4.9883-1.5273-10.152-6.5156-11.539-4.9766-1.3867-10.152 1.5273-11.539 6.5156l-8.6055 30.91z" fill="#ed8f3f"/>
</svg>
