<?xml version="1.0" encoding="UTF-8"?>
<svg width="1200pt" height="1200pt" version="1.1" viewBox="0 0 1200 1200" xmlns="http://www.w3.org/2000/svg">
 <path d="m600 1106.3c-21.75 0-43.5-6.3281-62.391-18.891l-52.031-34.688c-6.1406-4.125-13.359-6.2812-20.812-6.2812h-277.26c-29.859 0-58.453-11.859-79.547-32.953s-32.953-49.688-32.953-79.547v-675c0-29.859 11.859-58.453 32.953-79.547s49.688-32.953 79.547-32.953h277.26c22.266 0 43.969 6.5625 62.438 18.891l51.984 34.641c12.609 8.4375 29.016 8.4375 41.625 0l51.984-34.641c18.469-12.328 40.172-18.891 62.438-18.891h277.26c29.859 0 58.453 11.859 79.547 32.953s32.953 49.688 32.953 79.547v675c0 29.859-11.859 58.453-32.953 79.547s-49.688 32.953-79.547 32.953h-277.31c-7.4062 0-14.625 2.1562-20.766 6.2812l-52.031 34.688c-18.891 12.562-40.594 18.891-62.391 18.891zm-37.5-766.26v-65.156c-8.6719-3.0938-17.016-7.2188-24.891-12.469l-52.031-34.688c-6.1406-4.125-13.359-6.2812-20.812-6.2812h-277.26c-9.9375 0-19.5 3.9375-26.531 10.969s-10.969 16.594-10.969 26.531v675c0 9.9375 3.9375 19.5 10.969 26.531s16.594 10.969 26.531 10.969h277.26c22.266 0 43.969 6.5625 62.438 18.891l35.297 23.578v-116.34c-137.53-18.328-243.74-136.22-243.74-278.76 0-142.5 106.22-260.39 243.74-278.76zm75 557.53v116.3l35.297-23.531c18.469-12.328 40.172-18.891 62.438-18.891h277.26c9.9375 0 19.5-3.9375 26.531-10.969s10.969-16.594 10.969-26.531v-675c0-9.9375-3.9375-19.5-10.969-26.531s-16.594-10.969-26.531-10.969h-277.31c-7.4062 0-14.625 2.1562-20.766 6.2812l-52.031 34.688c-7.875 5.25-16.219 9.375-24.891 12.469v65.156c137.53 18.375 243.74 136.26 243.74 278.76 0 142.55-106.22 260.44-243.74 278.76zm-75-75.938c12.141 2.25 24.703 3.4219 37.5 3.4219 12.844 0 25.359-1.1719 37.5-3.4219 95.953-17.625 168.74-101.81 168.74-202.82s-72.797-185.21-168.74-202.82c-12.141-2.25-24.656-3.4219-37.5-3.4219-12.797 0-25.359 1.1719-37.5 3.4219-95.953 17.625-168.74 101.81-168.74 202.82s72.797 185.21 168.74 202.82zm37.5-352.82c25.875 0 46.875 21 46.875 46.875s-21 46.875-46.875 46.875-46.875-21-46.875-46.875 21-46.875 46.875-46.875zm-37.5 168.74c0-20.719 16.781-37.5 37.5-37.5s37.5 16.781 37.5 37.5v112.5c0 20.672-16.781 37.5-37.5 37.5s-37.5-16.828-37.5-37.5z" fill="#ed8f3f" fill-rule="evenodd"/>
</svg>
